<svg width="70" height="70" viewBox="0 0 70 70" fill="none" xmlns="http://www.w3.org/2000/svg">
<circle cx="35" cy="35" r="35" fill="white"/>
<g clip-path="url(#clip0_717_5851)">
<path d="M34.3511 35.3604V42.3221" stroke="#1DB032" stroke-width="2.38806" stroke-linecap="square"/>
<path d="M34.3511 26.9805V31.7505" stroke="#1DB032" stroke-width="2.38806" stroke-linecap="square"/>
<path d="M34.3511 22.2104V24.2732" stroke="#1DB032" stroke-width="2.38806" stroke-linecap="square"/>
<path d="M34.3511 18.7295V19.6319" stroke="#1DB032" stroke-width="2.38806" stroke-linecap="square"/>
<path d="M18.6024 52.8316L18.0706 54.2198L19.3489 53.4809L34.4735 44.738L49.4732 53.7344L50.774 54.5145L50.2268 53.0891L34.8381 12.9949L34.3507 11.7249L33.864 12.9952L18.6024 52.8316Z" stroke="black" stroke-width="1.19403"/>
<path d="M34.3648 12.7993V43.2245" stroke="black" stroke-width="1.19403"/>
<path d="M38.4209 46.3183C38.4209 48.597 36.5988 50.4438 34.3511 50.4438C32.1035 50.4438 30.2814 48.597 30.2814 46.3183C30.2814 44.04 32.1035 42.1929 34.3511 42.1929C36.5988 42.1929 38.4209 44.04 38.4209 46.3183Z" fill="#1DB032"/>
<path d="M34.3511 35.3604V42.3221" stroke="#1DB032" stroke-width="2.38806" stroke-linecap="square"/>
<path d="M34.3511 26.9805V31.7505" stroke="#1DB032" stroke-width="2.38806" stroke-linecap="square"/>
<path d="M34.3511 22.2104V24.2732" stroke="#1DB032" stroke-width="2.38806" stroke-linecap="square"/>
<path d="M34.3511 18.7295V19.6319" stroke="#1DB032" stroke-width="2.38806" stroke-linecap="square"/>
<path d="M18.6024 52.8316L18.0706 54.2198L19.3489 53.4809L34.4735 44.738L49.4732 53.7344L50.774 54.5145L50.2268 53.0891L34.8381 12.9949L34.3507 11.7249L33.864 12.9952L18.6024 52.8316Z" stroke="black" stroke-width="1.19403"/>
<path d="M34.3648 12.7993V43.2245" stroke="black" stroke-width="1.19403"/>
<path d="M38.4209 46.3183C38.4209 48.597 36.5988 50.4438 34.3511 50.4438C32.1035 50.4438 30.2814 48.597 30.2814 46.3183C30.2814 44.04 32.1035 42.1929 34.3511 42.1929C36.5988 42.1929 38.4209 44.04 38.4209 46.3183Z" fill="#1DB032"/>
</g>
<defs>
<clipPath id="clip0_717_5851">
<rect width="35" height="46" fill="white" transform="translate(17 10)"/>
</clipPath>
</defs>
</svg>
